<?xml version="1.0" encoding="UTF-8"?>
<!DOCTYPE svg PUBLIC "-//W3C//DTD SVG 1.1//EN" "http://www.w3.org/Graphics/SVG/1.1/DTD/svg11.dtd">
<!-- Creator: CorelDRAW 2020 (64 Bit) -->
<svg xmlns="http://www.w3.org/2000/svg" xml:space="preserve" width="7.6809mm" height="5.3907mm" version="1.1" style="shape-rendering:geometricPrecision; text-rendering:geometricPrecision; image-rendering:optimizeQuality; fill-rule:evenodd; clip-rule:evenodd"
viewBox="0 0 113.86 79.91"
 xmlns:xlink="http://www.w3.org/1999/xlink"
 xmlns:xodm="http://www.corel.com/coreldraw/odm/2003">
 <defs>
  <style type="text/css">
   <![CDATA[
    .fil0 {fill:black;fill-rule:nonzero}
   ]]>
  </style>
 </defs>
 <g id="Camada_x0020_1">
  <metadata id="CorelCorpID_0Corel-Layer"/>
  <g id="_2699590516032">
   <g>
    <path class="fil0" d="M2.66 79.91l108.54 0c1.47,0 2.66,-1.19 2.66,-2.66l0 -63.92c0,-1.47 -1.19,-2.66 -2.66,-2.66l-70.56 0 0 -8.02c0,-1.47 -1.19,-2.66 -2.66,-2.66l-22.79 0c-1.47,0 -2.66,1.19 -2.66,2.66l0 8.02 -9.87 0c-1.47,0 -2.66,1.19 -2.66,2.66l0 63.92c0,1.47 1.19,2.66 2.66,2.66zm54.11 -56.98c12.44,0 22.53,10.09 22.53,22.53 0,12.44 -10.09,22.53 -22.53,22.53 -12.44,0 -22.53,-10.09 -22.53,-22.53 0,-12.44 10.09,-22.53 22.53,-22.53z"/>
   </g>
   <g>
   </g>
   <g>
   </g>
   <g>
   </g>
   <g>
   </g>
   <g>
   </g>
   <g>
   </g>
   <g>
   </g>
   <g>
   </g>
   <g>
   </g>
   <g>
   </g>
   <g>
   </g>
   <g>
   </g>
   <g>
   </g>
   <g>
   </g>
   <g>
   </g>
  </g>
 </g>
</svg>
