<?xml version="1.0" encoding="UTF-8"?>
<!DOCTYPE svg PUBLIC "-//W3C//DTD SVG 1.1//EN" "http://www.w3.org/Graphics/SVG/1.1/DTD/svg11.dtd">
<!-- Creator: CorelDRAW 2020 (64 Bit) -->
<svg xmlns="http://www.w3.org/2000/svg" xml:space="preserve" width="36.3058mm" height="20.3364mm" version="1.1" style="shape-rendering:geometricPrecision; text-rendering:geometricPrecision; image-rendering:optimizeQuality; fill-rule:evenodd; clip-rule:evenodd"
viewBox="0 0 1637.9 917.46"
 xmlns:xlink="http://www.w3.org/1999/xlink"
 xmlns:xodm="http://www.corel.com/coreldraw/odm/2003">
 <defs>
  <style type="text/css">
   <![CDATA[
    .fil0 {fill:#ED3237}
   ]]>
  </style>
 </defs>
 <g id="Camada_x0020_1">
  <metadata id="CorelCorpID_0Corel-Layer"/>
  <g id="_1506989017600">
   <path class="fil0" d="M-0 234.81l204.26 507.78c0,0 576.51,139.36 1208.38,1.91 0,0 -511.6,38.18 -601.33,26.73l3.82 -691.05 148.9 106.91c0,0 -156.55,118.35 -131.72,225.26 24.82,106.9 66.81,160.36 284.44,194.72 0,0 -270.19,-42.83 -234.81,-248.17 0,0 3.83,-84 135.54,-162.27 0,0 -156.53,-89.72 -200.44,-196.62 0,0 -45.82,124.08 -185.18,183.26 0,0 171.81,158.45 110.72,280.62 -61.09,122.17 -280.62,179.44 -429.52,101.18 0,0 -141.26,-57.28 -66.81,-240.53 0,0 -158.45,-28.63 -246.26,-89.72z"/>
   <path class="fil0" d="M1256.11 580.33c0,0 250.07,-66.82 127.9,-253.89 0,0 230.98,-57.27 253.89,-97.36l-175.63 423.79 97.36 -343.61 -103.08 15.27c0,0 116.44,223.36 -200.45,255.81z"/>
   <path class="fil0" d="M242.44 817.04l1.91 38.18c0,0 555.51,137.44 1015.57,3.82 0,0 -526.87,68.72 -1017.48,-42z"/>
  </g>
 </g>
</svg>
