<?xml version="1.0" encoding="UTF-8"?>
<!DOCTYPE svg PUBLIC "-//W3C//DTD SVG 1.1//EN" "http://www.w3.org/Graphics/SVG/1.1/DTD/svg11.dtd">
<!-- Creator: CorelDRAW 2020 (64 Bit) -->
<svg xmlns="http://www.w3.org/2000/svg" xml:space="preserve" width="66.86mm" height="12.7158mm" version="1.1" style="shape-rendering:geometricPrecision; text-rendering:geometricPrecision; image-rendering:optimizeQuality; fill-rule:evenodd; clip-rule:evenodd"
viewBox="0 0 1199.67 228.16"
 xmlns:xlink="http://www.w3.org/1999/xlink"
 xmlns:xodm="http://www.corel.com/coreldraw/odm/2003">
 <defs>
  <style type="text/css">
   <![CDATA[
    .fil1 {fill:#FEFEFE}
    .fil0 {fill:#FEFEFE;fill-rule:nonzero}
   ]]>
  </style>
 </defs>
 <g id="Camada_x0020_1">
  <metadata id="CorelCorpID_0Corel-Layer"/>
  <g id="_1506994157792">
   <g id="_1506988461536">
    <path class="fil0" d="M491.58 165.43l-7.11 -13.31c-2.27,2.87 -5.14,4.54 -9.38,4.54 -9.08,0 -13.46,-10.13 -13.46,-25.41 0,-15.28 4.54,-25.56 12.86,-25.56 4.23,0 6.96,1.82 9.23,4.24l7.71 -12.86c-3.48,-3.48 -9.53,-6.81 -17.7,-6.81 -18.76,0 -29.04,16.64 -29.04,40.99 0,24.2 9.83,41.3 28.89,41.3 7.72,0 13.77,-2.72 18,-7.11z"/>
    <path id="_1" class="fil0" d="M557.08 131.55c0,-24.66 -11.19,-41.29 -29.65,-41.29 -18.61,0 -29.65,16.64 -29.65,41.29 0,24.2 11.19,40.99 29.65,40.99 18.45,0 29.65,-16.79 29.65,-40.99zm-16.94 -0.15c0,14.67 -3.78,26.17 -12.71,26.17 -8.77,0 -12.56,-11.5 -12.56,-26.17 0,-14.82 3.78,-26.32 12.56,-26.32 8.77,0 12.71,11.49 12.71,26.32z"/>
    <path id="_2" class="fil0" d="M590.51 107.65l-0.3 0 0 -14.82 -16.79 0 0 77.15 17.4 0 0 -38.72c0,-11.8 4.99,-23.6 13.92,-23.6 1.51,0 2.57,0.15 3.63,0.45l0.91 -17.55c-0.91,-0.3 -1.51,-0.3 -2.57,-0.3 -7.56,0 -13.62,6.05 -16.19,17.4z"/>
    <path id="_3" class="fil0" d="M636.95 107.65l-0.3 0 0 -14.82 -16.79 0 0 77.15 17.4 0 0 -38.72c0,-11.8 4.99,-23.6 13.92,-23.6 1.51,0 2.57,0.15 3.63,0.45l0.91 -17.55c-0.91,-0.3 -1.51,-0.3 -2.57,-0.3 -7.56,0 -13.62,6.05 -16.19,17.4z"/>
    <path id="_4" class="fil0" d="M717.42 135.79l0 -6.5c0,-22.08 -7.56,-39.03 -27.38,-39.03 -17.55,0 -29.5,16.49 -29.5,41.29 0,26.17 11.95,40.99 29.8,40.99 12.55,0 20.72,-6.96 25.11,-17.55l-12.56 -7.26c-2.27,5.29 -5.75,9.98 -11.95,9.98 -8.77,0 -13.46,-9.83 -13.61,-21.93l40.09 0zm-16.34 -12.4l-23.6 0c0.15,-7.41 3.63,-19.36 12.4,-19.36 7.72,0 11.19,8.02 11.19,19.36z"/>
    <path id="_5" class="fil0" d="M751.31 70.44c0,-5.9 -4.23,-10.74 -9.98,-10.74 -5.75,0 -9.98,4.84 -9.98,10.74 0,6.05 4.23,10.59 9.98,10.59 5.6,0 9.98,-4.54 9.98,-10.59zm-1.51 99.53l0 -77.15 -16.94 0 0 77.15 16.94 0z"/>
    <path id="_6" class="fil0" d="M801.68 138.21c0,9.23 -3.33,20.87 -12.55,20.87 -4.69,0 -8.77,-3.78 -8.77,-11.8 0,-11.04 8.02,-13.46 16.34,-13.46l4.99 0 0 4.39zm0.91 20.27l0 11.5 14.22 0 0 -45.84c0,-21.48 -6.5,-33.88 -25.56,-33.88 -8.47,0 -18,4.08 -23.6,11.19l8.17 10.74c3.33,-4.39 8.32,-7.41 14.07,-7.41 6.81,0 11.34,4.39 11.34,14.52l0 2.42 -4.23 0c-14.67,0 -31.92,5.14 -31.92,26.93 0,17.09 10.74,23.3 19.51,23.3 9.68,0 15.58,-5.14 17.7,-13.46l0.3 0z"/>
    <path id="_7" class="fil0" d="M854.77 160.14c0,-6.05 -4.39,-11.19 -10.44,-11.19 -6.05,0 -10.28,5.14 -10.28,11.19 0,6.2 4.23,11.04 10.28,11.04 6.05,0 10.44,-4.84 10.44,-11.04z"/>
    <path id="_8" class="fil0" d="M927.99 131.55c0,-24.66 -11.19,-41.29 -29.65,-41.29 -18.61,0 -29.65,16.64 -29.65,41.29 0,24.2 11.19,40.99 29.65,40.99 18.45,0 29.65,-16.79 29.65,-40.99zm-16.94 -0.15c0,14.67 -3.78,26.17 -12.71,26.17 -8.77,0 -12.56,-11.5 -12.56,-26.17 0,-14.82 3.78,-26.32 12.56,-26.32 8.77,0 12.71,11.49 12.71,26.32z"/>
    <path id="_9" class="fil0" d="M999.54 169.97l0 -77.15 -17.09 0 0 44.62c0,11.65 -4.99,20.12 -12.56,20.12 -8.17,0 -9.38,-8.47 -9.38,-16.34l0 -48.4 -17.09 0 0 48.4c0,15.88 3.03,31.31 19.82,31.31 9.53,0 16.49,-6.66 19.21,-14.82l0.3 0 0 12.25 16.79 0 -0 0z"/>
    <path id="_10" class="fil0" d="M1051.12 105.99l0 -13.16 -13.46 0 0 -19.67 -16.03 0 0 19.67 -9.68 0 0 13.16 9.68 0 0 43.51c0,14.27 5.44,22.44 18.45,22.44 4.08,0.15 8.47,-0.76 10.89,-1.97l-0.3 -13.46c-1.36,0.76 -3.48,1.21 -5.29,1.21 -5.29,0 -7.71,-3.63 -7.71,-12.1l0 -39.63 13.46 0 0 -0z"/>
    <polygon id="_11" class="fil0" points="1080.62,169.97 1080.62,55.61 1063.38,55.61 1063.38,169.97 "/>
    <path id="_12" class="fil0" d="M1153.54 135.79l0 -6.5c0,-22.08 -7.56,-39.03 -27.38,-39.03 -17.55,0 -29.5,16.49 -29.5,41.29 0,26.17 11.95,40.99 29.8,40.99 12.55,0 20.72,-6.96 25.11,-17.55l-12.56 -7.26c-2.27,5.29 -5.75,9.98 -11.95,9.98 -8.77,0 -13.46,-9.83 -13.61,-21.93l40.09 0zm-16.34 -12.4l-23.6 0c0.15,-7.41 3.63,-19.36 12.4,-19.36 7.72,0 11.19,8.02 11.19,19.36z"/>
    <path id="_13" class="fil0" d="M1199.67 105.99l0 -13.16 -13.46 0 0 -19.67 -16.04 0 0 19.67 -9.68 0 0 13.16 9.68 0 0 43.51c0,14.27 5.45,22.44 18.46,22.44 4.08,0.15 8.47,-0.76 10.89,-1.97l-0.3 -13.46c-1.36,0.76 -3.48,1.21 -5.29,1.21 -5.29,0 -7.71,-3.63 -7.71,-12.1l0 -39.63 13.46 0 0 -0z"/>
    <g>
     <path class="fil1" d="M0 58.39l50.8 126.28c0,0 143.37,34.66 300.51,0.48 0,0 -127.23,9.49 -149.54,6.65l0.95 -171.86 37.03 26.59c0,0 -38.93,29.43 -32.76,56.02 6.17,26.58 16.62,39.88 70.74,48.42 0,0 -67.19,-10.65 -58.39,-61.71 0,0 0.95,-20.89 33.71,-40.35 0,0 -38.93,-22.31 -49.85,-48.9 0,0 -11.39,30.86 -46.05,45.58 0,0 42.73,39.4 27.54,69.79 -15.19,30.38 -69.79,44.63 -106.81,25.16 0,0 -35.13,-14.24 -16.62,-59.82 0,0 -39.4,-7.12 -61.24,-22.31l0 -0z"/>
     <path class="fil1" d="M312.38 144.32c0,0 62.19,-16.62 31.81,-63.14 0,0 57.44,-14.24 63.14,-24.21l-43.68 105.39 24.21 -85.45 -25.64 3.8c0,0 28.96,55.54 -49.85,63.62l0 -0z"/>
     <path class="fil1" d="M60.3 203.19l0.48 9.5c0,0 138.15,34.18 252.56,0.95 0,0 -131.03,17.09 -253.04,-10.44z"/>
    </g>
   </g>
  </g>
 </g>
</svg>
